<svg xmlns="http://www.w3.org/2000/svg"  viewBox="0 0 16 16" width="64px" height="64px" fill-rule="evenodd" clip-rule="evenodd" baseProfile="basic"><path fill="#b3e5fc" fill-rule="evenodd" d="M2,11.9V8.102	c0-1.677,1.335-3.045,3-3.097l0.001-1.003l3-2l3,2v1.003c1.664,0.053,3,1.421,3,3.097V11.9c0,1.711-1.389,3.1-3.1,3.1H5.1	C3.389,15,2,13.611,2,11.9z" clip-rule="evenodd"/><path fill="#212121" fill-rule="evenodd" d="M1.001,11.002	L0.999,7.918C0.735,7.824,0.495,7.655,0.312,7.416C-0.193,6.76-0.071,5.818,0.587,5.314l6.5-5c0.539-0.415,1.289-0.415,1.828,0	l6.5,5c0.657,0.504,0.78,1.447,0.275,2.103c-0.184,0.239-0.424,0.407-0.688,0.5v3.085c0,2.953-2.048,5-5,5h-4	C3.048,16.002,1.001,13.955,1.001,11.002z M6.001,14.002v-5c0-0.551,0.448-1,1-1h2c0.551,0,1,0.449,1,1v5c1.845,0,3-1.152,3-3	L13,7.24L8.001,3.395l-5,3.845v3.761C3.001,12.848,4.153,14.002,6.001,14.002z" clip-rule="evenodd"/></svg>